<?xml version="1.0" encoding="UTF-8" standalone="no"?>
<!-- Generator: Adobe Illustrator 16.0.0, SVG Export Plug-In . SVG Version: 6.00 Build 0)  -->

<svg
   xmlns:dc="http://purl.org/dc/elements/1.1/"
   xmlns:cc="http://creativecommons.org/ns#"
   xmlns:rdf="http://www.w3.org/1999/02/22-rdf-syntax-ns#"
   xmlns:svg="http://www.w3.org/2000/svg"
   xmlns="http://www.w3.org/2000/svg"
   xmlns:sodipodi="http://sodipodi.sourceforge.net/DTD/sodipodi-0.dtd"
   xmlns:inkscape="http://www.inkscape.org/namespaces/inkscape"
   enable-background="new 0 0 1125 750"
   xml:space="preserve"
   height="468.77"
   viewBox="0 0 480.73709 468.77231"
   width="480.74"
   version="1.1"
   y="0px"
   x="0px"
   id="svg2"
   inkscape:version="0.48.4 r9939"
   sodipodi:docname="Seal_of_Changhua_County.svg"><defs
   id="defs88">
	
	
	

	
	
	
	
	
	
	
	
	
	
	
	
	
	
	
	
	
	
	
	
	
	
	
	
	
	
	
	
	
	
</defs><sodipodi:namedview
   pagecolor="#ffffff"
   bordercolor="#666666"
   borderopacity="1"
   objecttolerance="10"
   gridtolerance="10"
   guidetolerance="10"
   inkscape:pageopacity="0"
   inkscape:pageshadow="2"
   inkscape:window-width="1920"
   inkscape:window-height="1028"
   id="namedview86"
   showgrid="false"
   inkscape:zoom="1.4142136"
   inkscape:cx="257.55518"
   inkscape:cy="209.45896"
   inkscape:window-x="-8"
   inkscape:window-y="-8"
   inkscape:window-maximized="1"
   inkscape:current-layer="svg2" /><metadata
   id="metadata4"><rdf:RDF><cc:Work
       rdf:about=""><dc:format>image/svg+xml</dc:format><dc:type
         rdf:resource="http://purl.org/dc/dcmitype/StillImage" /><dc:title /></cc:Work></rdf:RDF></metadata>
<g
   transform="matrix(0.88194554,0,0,0.8819431,-322.13225,-34.827262)"
   id="g6"
   style="fill:#ffdb00;fill-opacity:1">
	<g
   id="g8"
   style="fill:#ffdb00;fill-opacity:1">
		<path
   d="m564.44,76.196c32.025-29.427,81.796-35.771,120.64-16.603,27.876,14.004,49.978,39.75,58.247,69.988,3.744,13.128,3.51,26.897,4.153,40.395,29.425-9.451,62.496-11.273,90.607,3.306,48.627,21.833,74.847,82.207,57.57,132.62-10.664,35.639-40.936,62.803-76.03,73.533,8.876,14.643,18.494,29.392,22.105,46.4,4.863,22.307,3.611,46.232-5.231,67.392-10.932,27.468-33.979,49.406-61.181,60.608-32.833,13.093-72.08,9.381-101.48-10.496-13.668-8.607-23.789-21.429-33.745-33.914-14.817,19.235-32.733,37.121-56.222,45.219-33.78,12.486-74.003,7.863-102.99-13.97-30.878-22.067-49.036-60.812-45.457-98.674,1.149-22.374,12.52-42.251,23.722-61.014-33.812-10.865-64.688-34.557-77.18-68.706-20.818-51.091,4.05-115.21,54.229-138.39,27.705-14.849,60.408-13.161,89.867-4.995-1.112-34.518,11.51-70.085,38.37-92.696z"
   style="fill:#ffdb00;fill-opacity:1"
   id="path10" />
	</g>
</g>
<g
   id="g14"
   transform="matrix(0.88194554,0,0,0.8819431,-322.13225,-34.827262)"
   style="fill:#d81e05;fill-opacity:1">
		<path
   inkscape:connector-curvature="0"
   id="path16"
   style="fill:#d81e05;fill-opacity:1"
   d="m 601.27,44.778 c 30.472,-9.211 64.824,-6.511 92.794,9.047 29.361,15.42 50.964,44.138 58.687,76.263 2.159,8.843 2.801,17.955 4.689,26.861 31.52,-8.671 66.313,-4.557 94.186,12.758 27.908,16.299 48.153,44.508 55.814,75.793 7.29,33.173 0.878,69.45 -19.773,96.817 -12.892,19.236 -32.595,32.294 -53.08,42.284 11.239,20.752 20.281,43.535 19.238,67.592 0.135,38.469 -19.607,76.808 -51.836,98.065 -21.733,14.643 -48.255,22.205 -74.476,20.452 -34.049,-1.219 -65.703,-19.137 -87.537,-44.782 -16.8,18.158 -37.085,34.017 -61.448,40.328 -32.969,9.889 -69.854,4.018 -98.745,-14.48 -32.83,-21.664 -55.066,-59.832 -54.157,-99.581 -1.216,-23.622 7.561,-46.03 18.324,-66.549 -24.602,-10.728 -47.919,-26.76 -61.418,-50.584 -22.644,-37.188 -23.284,-86.893 -0.438,-124.12 26.523,-44.647 83.283,-68.603 133.6,-54.298 3.344,-16.468 5.1,-33.576 12.656,-48.829 14.375,-29.663 41.101,-53.692 72.924,-63.039 z m -36.986,31.418 c -26.858,22.609 -39.482,58.176 -38.367,92.699 -29.46,-8.166 -62.159,-9.853 -89.867,4.995 -50.18,23.184 -75.05,87.301 -54.229,138.39 12.486,34.149 43.363,57.84 77.178,68.705 -11.203,18.764 -22.574,38.641 -23.725,61.014 -3.579,37.861 14.583,76.605 45.458,98.674 28.984,21.83 69.21,26.457 102.99,13.97 23.488,-8.099 41.407,-25.982 56.221,-45.219 9.953,12.486 20.078,25.309 33.747,33.914 29.395,19.877 68.635,23.589 101.48,10.496 27.198,-11.202 50.245,-33.141 61.18,-60.607 8.843,-21.158 10.091,-45.083 5.23,-67.391 -3.61,-17.009 -13.228,-31.753 -22.104,-46.401 35.096,-10.734 65.367,-37.9 76.03,-73.533 17.274,-50.415 -8.943,-110.78 -57.571,-132.62 -28.111,-14.578 -61.183,-12.757 -90.608,-3.306 -0.639,-13.5 -0.402,-27.268 -4.152,-40.396 -8.27,-30.233 -30.37,-55.979 -58.25,-69.984 -38.84,-19.17 -88.61,-12.826 -120.64,16.6 z" />
	</g><path
   inkscape:connector-curvature="0"
   id="path18"
   style="fill:#d81e05;fill-opacity:1"
   d="m 156.55251,201.09252 c 9.84957,-23.21275 30.0276,-40.86219 53.45031,-49.67104 25.20777,42.67635 25.35858,99.43909 -1.2797,141.55187 -4.57906,-2.44298 -8.68805,-5.62592 -12.76881,-8.75152 6.19126,-14.73463 13.27504,-29.49218 15.17652,-45.50562 1.72773,-21.04228 1.87854,-43.74879 -10.11856,-62.14524 -21.81669,14.07758 -34.10748,39.82238 -34.014,65.41989 1.51342,22.79647 12.618,45.26838 31.27644,58.80885 10.05947,7.40744 22.17476,11.07368 34.04662,14.34569 v 18.87094 c -21.06967,-3.88937 -42.05116,-12.25019 -56.86784,-28.19573 -26.6083,-26.93454 -34.25477,-70.24676 -18.89128,-104.73956 z" /><path
   inkscape:connector-curvature="0"
   id="path20"
   style="fill:#d81e05;fill-opacity:1"
   d="m 269.79432,152.1094 c 44.93953,11.39911 71.87591,63.00866 61.04121,107.05025 -7.50006,38.95896 -42.0882,70.38788 -81.42738,74.70235 v -18.87006 c 13.7804,-3.77824 28.03087,-8.33172 38.84088,-18.15392 15.41464,-13.87032 25.08694,-34.07651 25.92214,-54.81893 0.56533,-25.77567 -12.11352,-52.49943 -34.91093,-65.50456 -7.11465,15.89438 -10.65567,33.24484 -9.58234,50.71261 -0.29898,20.11888 8.21268,38.74817 15.97821,56.84388 -4.0446,3.24378 -8.27177,6.33852 -12.67532,9.10606 -27.35178,-41.93287 -25.68578,-97.41062 -3.18647,-141.0668 z" />
<path
   inkscape:connector-curvature="0"
   id="path24"
   style="fill:#008000;fill-opacity:1"
   d="m 77.556649,206.61348 c 8.024823,6.88092 13.145399,16.33271 19.000635,24.98809 4.879806,7.94102 10.223516,15.70212 14.000886,24.22698 -0.32015,5.87815 -1.72685,11.67605 -2.6573,17.48629 -3.99963,-10.90523 -6.60842,-22.37754 -12.163795,-32.66717 -5.593299,-11.59226 -12.902864,-22.29641 -18.180426,-34.03419 z" /><path
   inkscape:connector-curvature="0"
   id="path26"
   style="fill:#008000;fill-opacity:1"
   d="m 385.09106,230.14372 c 5.52539,-8.17826 10.44135,-17.07353 18.05695,-23.54788 -5.27315,11.73866 -12.58889,22.45251 -18.18836,34.04565 -5.54391,10.28875 -8.15271,21.76107 -12.15497,32.65306 -0.93751,-5.80847 -2.33363,-11.59402 -2.65642,-17.46423 4.05077,-9.04345 9.71904,-17.28168 14.9428,-25.6866 z" /><path
   inkscape:connector-curvature="0"
   id="path28"
   style="fill:#008000;fill-opacity:1"
   d="m 100.6548,209.1623 c 7.44803,0.45332 15.09538,0 22.24708,2.58409 -2.40418,4.37003 -5.64181,8.24881 -9.92542,10.86818 -0.36953,10.27376 2.5356,20.85708 -0.95338,30.84773 -2.3689,-3.54718 -5.10646,-6.98764 -6.47524,-11.08603 -0.98866,-6.90208 1.09449,-13.90471 -0.0626,-20.79798 -1.41641,-2.58321 -4.49704,-4.4053 -4.51203,-7.59441 -0.13847,-1.60866 -0.24783,-3.21468 -0.31839,-4.82158 z" /><path
   inkscape:connector-curvature="0"
   id="path30"
   style="fill:#008000;fill-opacity:1"
   d="m 357.80366,211.72875 c 7.15523,-2.56998 14.78582,-2.11843 22.24973,-2.56998 -0.17816,2.25866 -0.15346,4.54465 -0.64294,6.77332 -1.18269,2.03641 -2.95717,3.65742 -4.19454,5.64267 -1.16593,6.89768 0.93399,13.89414 -0.06,20.79799 -1.36789,4.09662 -4.10634,7.5362 -6.47436,11.08602 -3.48898,-9.988 -0.58385,-20.57309 -0.95338,-30.84684 -4.28185,-2.62025 -7.51947,-6.50257 -9.92454,-10.88318 z" /><path
   inkscape:connector-curvature="0"
   id="path32"
   style="fill:#008000;fill-opacity:1"
   d="m 125.09351,229.75567 c 3.41931,-5.67972 6.8686,-11.55963 12.22553,-15.64655 -3.27554,7.34658 -7.78493,14.05023 -10.98816,21.42857 -8.52224,19.94073 -10.77473,41.87995 -10.44047,63.39054 -2.13166,-1.80798 -4.34623,-3.53747 -6.13305,-5.67795 -1.05569,-7.43125 -0.0829,-15.02302 0.41893,-22.4772 0.77435,-14.81576 7.69144,-28.37476 14.91722,-41.01741 z" /><path
   inkscape:connector-curvature="0"
   id="path34"
   style="fill:#008000;fill-opacity:1"
   d="m 117.91448,300.47869 c -1.74008,-29.46396 3.96522,-60.64329 21.53534,-84.92848 -2.3839,6.90473 -5.77762,13.417 -7.93133,20.40552 -4.37798,14.03612 -7.86519,28.64375 -7.09437,43.4648 -0.0123,10.19085 3.27378,20.0351 3.08681,30.23654 -3.32758,-2.92805 -6.90652,-5.6462 -9.59645,-9.17838 z" /><path
   inkscape:connector-curvature="0"
   id="path36"
   style="fill:#008000;fill-opacity:1"
   d="m 341.24955,215.53875 c 11.94066,16.02049 17.86909,35.70193 20.74688,55.26961 1.02041,9.83278 1.39171,19.79874 0.79993,29.66856 -2.69082,3.53483 -6.28651,6.25033 -9.59557,9.17927 -0.18785,-7.73553 1.75066,-15.26468 2.59557,-22.89437 2.15459,-18.16714 -1.70392,-36.3678 -7.53623,-53.51101 -2.03465,-6.01926 -4.97417,-11.68751 -7.01058,-17.71206 z" /><path
   inkscape:connector-curvature="0"
   id="path38"
   style="fill:#008000;fill-opacity:1"
   d="m 344.04531,214.89493 c 5.80938,4.39296 9.19076,10.98901 12.88082,17.09646 5.33224,9.58232 10.24997,19.6056 12.57125,30.39353 1.6413,10.27287 1.96762,20.71067 1.80093,31.10348 -2.14401,1.70215 -4.26068,3.40519 -6.41527,5.08264 0.14288,-19.58266 -1.59544,-39.42815 -8.46491,-57.90221 -3.02508,-9.10606 -8.78683,-16.92713 -12.37282,-25.7739 z" /><path
   inkscape:connector-curvature="0"
   id="path40"
   style="fill:#008000;fill-opacity:1"
   d="m 80.378875,217.68187 c 1.568099,1.80181 3.034775,3.71474 4.237748,5.78643 5.366639,9.5241 10.321409,19.28633 14.607664,29.33431 3.142373,7.57059 5.251103,15.51161 7.630593,23.33092 1.6413,4.94153 1.0989,10.2032 0.93927,15.32023 -3.30994,-2.9254 -7.1076,-5.40543 -9.7746,-8.96495 -1.831801,-11.09573 -1.677461,-22.53629 -4.744867,-33.41682 -3.003025,-10.95903 -8.813282,-20.85267 -12.89669,-31.38924 h 8.82e-4 z" /><path
   inkscape:connector-curvature="0"
   id="path42"
   style="fill:#008000;fill-opacity:1"
   d="m 396.09774,223.46741 c 1.20121,-2.08315 2.65642,-3.98726 4.23951,-5.78378 -3.85675,9.94038 -9.23926,19.28721 -12.3587,29.53451 -3.10621,10.09208 -3.50044,20.72566 -4.64344,31.152 0.29986,6.42671 -6.51053,9.15104 -10.4052,13.07127 -0.74965,-7.06083 0,-14.14372 2.55941,-20.7821 4.41678,-16.69078 12.22905,-32.19357 20.60842,-47.1919 z" /><path
   inkscape:connector-curvature="0"
   id="path44"
   style="fill:#008000;fill-opacity:1"
   d="m 33.582845,248.37349 c 6.653397,0.37041 12.91521,2.89365 18.71312,6.03425 16.189874,8.5963 31.869102,18.42732 45.642446,30.59461 8.500189,7.34658 16.665239,15.08299 25.011979,22.59803 2.2031,2.17575 5.17966,4.28359 5.16379,7.73552 0.59884,6.44259 1.6413,12.83227 2.18987,19.28721 -4.46441,-5.19376 -7.93751,-11.10807 -11.84629,-16.69077 C 105.18448,298.33645 88.111773,281.50456 69.326333,267.19503 58.690952,258.65959 45.334769,254.94573 33.582845,248.37349 z" /><path
   inkscape:connector-curvature="0"
   id="path46"
   style="fill:#008000;fill-opacity:1"
   d="m 430.79348,253.19772 c 5.07648,-2.62996 10.59481,-4.46264 16.33627,-4.82159 -10.22615,5.85699 -21.81227,9.11929 -31.571,15.86704 -15.21444,10.64064 -28.82551,23.47821 -41.00077,37.44995 -9.22603,10.57097 -16.26395,22.77442 -24.62215,33.98921 1.00453,-6.77421 2.05934,-13.5246 2.66877,-20.34467 0,-3.75884 3.41665,-5.92754 5.78291,-8.31937 13.88182,-12.37983 27.07485,-25.68924 42.5477,-36.11909 9.57617,-6.51051 19.53774,-12.44069 29.85827,-17.70148 z" /><path
   inkscape:connector-curvature="0"
   id="path48"
   style="fill:#008000;fill-opacity:1"
   d="m 128.8947,287.64641 c 0.83432,-11.30739 6.22742,-21.55998 11.56054,-31.33103 1.54693,7.6879 -0.10848,15.45253 -0.27428,23.17659 -0.77171,23.3124 4.5817,47.15397 17.09651,66.99151 -4.04725,-0.79904 -8.06275,-1.73831 -12.0606,-2.75254 -4.40709,-19.10642 -7.71174,-38.62999 -7.73643,-58.29468 -0.17815,-8.85647 2.90513,-17.38309 2.8822,-26.21399 -2.90513,7.58118 -3.57541,15.77267 -4.51292,23.77013 -1.40406,20.34466 3.92907,40.28628 7.38189,60.16792 -3.09563,-0.82462 -6.1551,-1.71891 -9.21898,-2.63348 -1.55487,-8.46401 -3.85587,-16.8213 -4.39033,-25.44053 -0.52387,-9.12988 -1.79916,-18.29503 -0.7276,-27.4399 z" /><path
   inkscape:connector-curvature="0"
   id="path50"
   style="fill:#008000;fill-opacity:1"
   d="m 49.440225,257.82792 c 13.784809,4.99532 24.844406,14.97539 35.47626,24.7385 10.201464,9.63964 20.441735,19.44067 28.535345,30.98443 5.74059,8.10505 11.41767,16.29654 16.35745,24.92988 -4.31095,-1.7145 -8.85826,-3.2526 -12.5007,-6.21329 -3.2385,-3.25084 -5.42837,-7.3457 -8.11919,-11.03487 C 101.69197,310.67218 94.011107,300.14884 85.084936,290.71558 74.000645,278.93546 62.548582,267.38289 49.440225,257.82792 z" /><path
   inkscape:connector-curvature="0"
   id="path52"
   style="fill:#008000;fill-opacity:1"
   d="m 387.29592,290.69794 c 13.28387,-12.55005 26.48924,-26.33571 43.97645,-32.86914 -12.87993,9.39093 -24.15648,20.71155 -35.07321,32.28617 -11.32506,11.92475 -20.78393,25.43789 -30.07258,38.9519 -3.36815,5.31988 -9.72345,7.17814 -15.22679,9.41563 10.26232,-17.22876 21.70292,-33.98833 36.39613,-47.78456 z" /><path
   inkscape:connector-curvature="0"
   id="path54"
   style="fill:#008000;fill-opacity:1"
   d="m 340.43816,289.15454 c 0.84931,-10.24995 -1.16505,-20.42845 -0.96397,-30.66517 2.02406,10.82145 4.29684,21.74872 3.71387,32.8224 -0.76641,17.6759 -3.65831,35.21069 -7.69144,52.41388 -3.99698,1.01423 -8.01248,1.95174 -12.06061,2.73843 10.74915,-17.07265 16.34598,-37.20124 17.00126,-57.30954 h 8.9e-4 z" /><path
   inkscape:connector-curvature="0"
   id="path56"
   style="fill:#008000;fill-opacity:1"
   d="m 341.25837,258.57757 c 3.75179,6.11716 6.73982,12.71409 8.84591,19.57032 3.58511,12.78641 1.68981,26.13197 0.80963,39.14416 -0.73819,7.85547 -2.79754,15.49927 -4.21482,23.23744 -3.05506,0.91633 -6.12776,1.80886 -9.20134,2.63171 3.00214,-16.77455 7.00088,-33.50061 7.61825,-50.58296 0.52387,-11.48907 -2.33275,-22.70651 -3.85763,-34.00067 z" /><path
   inkscape:connector-curvature="0"
   id="path58"
   style="fill:#008000;fill-opacity:1"
   d="m 151.77237,312.6054 c 2.17752,-0.59707 4.35681,-1.14035 6.55991,-1.67745 7.17992,14.27513 13.78745,29.33166 25.21835,40.8322 6.00958,6.21682 13.86506,10.05062 21.09437,14.61027 -0.0168,2.84162 0,5.69823 0,8.5716 -10.08769,-6.95412 -20.619,-13.45492 -29.40583,-22.04857 -10.67066,-11.50319 -18.19542,-25.60634 -23.4668,-40.28805 z" /><path
   inkscape:connector-curvature="0"
   id="path60"
   style="fill:#008000;fill-opacity:1"
   d="m 160.96224,311.30013 c 15.6413,5.62944 28.79817,16.88215 38.93613,29.84407 -8.50019,-3.87879 -15.84591,-9.96419 -24.7227,-13.07128 -2.72697,-1.23825 -6.00957,-1.70303 -8.21267,-3.84527 -2.63173,-3.97756 -4.17866,-8.54779 -6.00076,-12.92752 z" /><path
   inkscape:connector-curvature="0"
   id="path62"
   style="fill:#008000;fill-opacity:1"
   d="m 280.80982,341.14508 c 10.13355,-12.96456 23.301,-24.21463 38.93966,-29.84407 -1.82122,4.38061 -3.36815,8.94996 -6.01134,12.9381 -2.2181,2.13519 -5.491,2.59556 -8.21268,3.83381 -8.86796,3.10973 -16.22603,9.20396 -24.71564,13.07216 z" /><path
   inkscape:connector-curvature="0"
   id="path64"
   style="fill:#008000;fill-opacity:1"
   d="m 322.37591,310.92971 c 2.18987,0.52564 4.37181,1.09537 6.56256,1.67834 -6.81303,18.47582 -16.80106,36.8661 -33.1347,48.5589 -6.41262,4.83217 -13.07837,9.28422 -19.73882,13.77772 0,-2.87249 -0.0106,-5.7291 0,-8.57249 7.23901,-4.55964 15.0848,-8.39257 21.10937,-14.61997 11.42031,-11.48907 18.0252,-26.54913 25.20159,-40.8225 z" /><path
   inkscape:connector-curvature="0"
   id="path66"
   style="fill:#008000;fill-opacity:1"
   d="m 146.08382,316.55651 c 1.21267,-1.23825 2.54706,-2.34685 3.85675,-3.4775 6.26269,15.76208 14.12965,31.47566 26.6277,43.26107 8.05039,7.20195 17.18911,13.03247 26.14351,19.04291 2.89278,1.23825 1.65364,4.81189 1.94028,7.25222 -6.30856,-2.70139 -11.83307,-6.81742 -17.52426,-10.57009 -12.72559,-8.41726 -24.26232,-19.10641 -32.05784,-32.32145 -3.79766,-7.36775 -7.03616,-15.13061 -8.98614,-23.18716 z" /><path
   inkscape:connector-curvature="0"
   id="path68"
   style="fill:#008000;fill-opacity:1"
   d="m 313.13312,346.29563 c 7.46479,-10.15469 13.08278,-21.49736 17.6345,-33.21574 1.3044,1.12007 2.66612,2.19074 3.85852,3.46515 -1.9297,8.0592 -5.19378,15.81942 -8.96851,23.18805 -7.66411,12.9531 -18.91685,23.52407 -31.35581,31.84608 -5.92932,3.90878 -11.66726,8.21707 -18.21482,11.04722 0.25135,-2.44298 -0.98425,-6.00162 1.92,-7.2531 12.55802,-8.53103 26.05355,-16.56553 35.12612,-29.07766 z" /><path
   inkscape:connector-curvature="0"
   id="path70"
   style="fill:#008000;fill-opacity:1"
   d="m 92.876043,322.82712 c 6.036918,4.38061 11.096637,9.97654 17.333757,14.10845 12.32343,8.21618 25.9195,14.25043 39.61788,19.77316 8.34761,3.39284 17.20234,5.49715 25.39297,9.26305 5.7838,4.04547 11.31184,8.4887 17.16795,12.45568 -9.89454,-1.18268 -19.66562,-3.32316 -29.19151,-6.21593 -15.21356,-4.85775 -28.78582,-13.57311 -41.95503,-22.3943 -10.77032,-7.38539 -21.650001,-15.53808 -28.366017,-26.99011 z" /><path
   inkscape:connector-curvature="0"
   id="path72"
   style="fill:#008000;fill-opacity:1"
   d="m 370.50368,336.92057 c 6.23712,-4.11779 11.28626,-9.7146 17.33376,-14.09345 -8.12008,13.70187 -21.80963,22.65536 -34.79805,31.26312 -11.97682,7.73641 -24.47398,15.07153 -38.30024,18.95472 -8.66512,2.43946 -17.49957,4.33034 -26.43985,5.3922 5.86847,-3.96521 11.39385,-8.40491 17.19,-12.46362 8.19063,-3.76237 17.04713,-5.86756 25.40532,-9.26393 13.68956,-5.52625 27.29886,-11.56051 39.60906,-19.78904 z" /><path
   inkscape:connector-curvature="0"
   id="path74"
   style="fill:#008000;fill-opacity:1"
   d="m 97.532716,323.71789 c 10.476634,5.17436 20.168334,11.92475 31.107104,16.20041 9.34597,4.22627 19.57125,5.79789 29.29911,8.82119 5.095,3.67594 8.92882,8.88293 13.15422,13.49991 -15.62014,-4.70341 -30.73492,-10.9652 -45.36552,-18.15657 -10.45634,-5.0941 -20.43203,-11.61607 -28.194914,-20.36494 z" /><path
   inkscape:connector-curvature="0"
   id="path76"
   style="fill:#008000;fill-opacity:1"
   d="m 366.50847,332.92537 c 5.63122,-2.92011 10.83558,-6.64456 16.66612,-9.20219 -11.17689,12.73614 -26.83407,20.12682 -42.08468,26.82165 -10.26231,4.46352 -20.73895,8.51075 -31.47663,11.71132 3.32405,-3.95375 6.81832,-7.74875 10.43694,-11.41763 3.13267,-3.43958 8.13683,-3.39284 12.28991,-4.68841 11.97947,-2.66788 23.46769,-7.23811 34.16834,-13.22474 z" /><path
   inkscape:connector-curvature="0"
   id="path78"
   style="fill:#008000;fill-opacity:1"
   d="m 168.52933,327.43087 c 10.02331,3.17852 19.53774,8.10505 27.90829,14.49826 -6.65516,-1.62983 -13.47437,-2.08227 -20.28916,-1.63953 -2.6917,-4.20334 -5.39045,-8.40492 -7.61913,-12.85873 z" /><path
   inkscape:connector-curvature="0"
   id="path80"
   style="fill:#008000;fill-opacity:1"
   d="m 284.28468,341.92119 c 8.35732,-6.38086 17.8691,-11.30915 27.89153,-14.48591 -2.23838,4.45469 -4.92831,8.6545 -7.62001,12.85784 -6.80685,-0.44361 -13.62694,0.009 -20.27152,1.62807 z" /><g
   id="g82"
   transform="matrix(0.88194554,0,0,0.8819431,-322.13225,-34.827262)"
   style="fill:#d81e05;fill-opacity:1">
		<path
   inkscape:connector-curvature="0"
   id="path84"
   style="fill:#d81e05;fill-opacity:1"
   d="m 560.9,167.85 c 9.547,-4.201 18.75,-9.151 28.36,-13.23 0.458,4.697 0.594,9.423 0.716,14.146 4.645,-0.365 9.312,-0.687 13.983,-0.296 -1.255,2.766 -2.619,5.507 -4.013,8.203 4.16,1.34 8.153,3.146 11.986,5.24 -6.988,7.249 -14.482,14.591 -24.365,17.598 -8.504,4.779 -19.126,5.792 -26.12,13.094 -3.901,4.238 -8.905,7.236 -12.807,11.489 -4.725,4.847 -10.115,8.951 -15.768,12.633 -4.697,4.43 -4.496,11.866 -8.948,16.577 -10.813,12.431 -15.093,29.927 -28.752,39.969 0.496,7.423 0.849,14.848 1.064,22.296 6.358,-11.254 12.177,-23.016 20.716,-32.842 4.497,-5.098 9.706,-9.543 15.108,-13.657 -2.565,8.748 -7.088,16.722 -10.516,25.133 -5.453,12.335 -9.273,25.402 -11.177,38.767 -1.188,8.841 -2.321,17.873 -0.685,26.725 4.008,-13.295 9.365,-26.51 17.747,-37.672 1.024,20.545 -3.412,41.292 0.34,61.728 0.66,3.978 1.417,7.949 2.172,11.933 4.586,-2.406 9.189,-5.67 14.592,-5.512 6.646,0.664 12.646,3.972 18.262,7.384 16.455,9.962 29.292,24.583 41.613,39.09 -12.055,-4.724 -24.352,-9.746 -37.553,-9.639 6.007,10.177 16.009,16.914 25.889,22.92 5.495,3.698 12.541,1.8231 18.749,2.2661 v -6.7737 h 9.3411 l -3.5e-4,-12.128 h 33.798 v 12.128 h 9.4235 l 4.2e-4,6.7737 c 6.181,-0.447 13.227,1.4319 18.72,-2.2661 9.882,-6.006 19.885,-12.743 25.892,-22.92 -13.202,-0.107 -25.497,4.913 -37.552,9.639 11.324,-13.254 22.918,-26.7 37.565,-36.444 6.464,-4.305 13.313,-8.585 21.098,-9.894 5.818,-0.835 10.895,2.806 15.812,5.359 1.146,-6.17 2.361,-12.336 3.146,-18.574 1.809,-18.344 -1.517,-36.728 -0.647,-55.074 8.435,11.163 13.715,24.432 17.817,37.727 1.603,-9.68 0.338,-19.518 -1.105,-29.129 -2.049,-13.228 -6.13,-26.077 -11.624,-38.267 -3.226,-7.761 -7.37,-15.158 -9.69,-23.272 6.411,4.888 12.58,10.229 17.563,16.615 7.234,9.19 12.512,19.71 18.249,29.86 0.216,-7.545 0.636,-15.062 0.958,-22.595 -9.187,-6.236 -13.938,-16.697 -19.411,-25.958 -2.767,-5.534 -6.639,-10.358 -10.362,-15.244 -3.539,-4.521 -3.469,-11.119 -7.802,-15.037 -12.569,-7.881 -22.069,-19.586 -33.92,-28.348 -6.994,-3.671 -14.739,-5.602 -21.747,-9.272 -9.527,-2.959 -16.603,-10.273 -23.392,-17.184 3.847,-2.118 7.858,-3.926 12.045,-5.276 -1.435,-2.609 -2.809,-5.225 -4.13,-7.872 4.657,-0.78 9.354,-0.379 14.034,-0.054 0.112,-4.71 0.259,-9.421 0.72,-14.105 9.881,4.104 19.243,9.435 29.156,13.469 7.559,1.042 12.688,7.072 19.073,10.598 3.334,1.93 6.734,3.878 9.448,6.668 5.035,5.005 12.202,7.33 16.629,13.026 3.829,5.147 9.558,8.491 13.067,13.903 2.888,4.28 6.854,7.686 9.745,11.948 2.955,4.602 7.652,7.82 10.208,12.704 0.729,2.711 0.687,5.562 1.283,8.312 1.573,3.903 5.831,6.74 5.562,11.329 -0.107,7.681 -2.768,15.145 -2.239,22.862 0.31,2.956 -0.415,5.873 -2.404,8.139 -5.436,6.266 -2.187,15.203 -2.71,22.69 8.247,-11.904 15.305,-24.674 24.959,-35.542 5.509,-6.17 11.23,-12.214 17.645,-17.456 -1.136,3.267 -2.467,6.465 -4.105,9.507 -7.353,13.294 -13.066,27.415 -19.479,41.182 -7.195,15.553 -9.043,32.803 -10.488,49.676 12.571,-9.504 25.394,-18.709 39.215,-26.362 12.617,-7.637 26.942,-14.391 42.129,-12.354 -7.762,4.616 -15.94,8.505 -23.541,13.418 -14.168,8.789 -26.25,20.464 -37.943,32.247 -14.564,14.147 -26.662,30.664 -37.295,47.906 11.229,-5.896 21.436,-13.526 32.422,-19.829 -7.572,12.1 -15.646,24.273 -26.808,33.387 -15.076,12.538 -31.979,22.758 -49.46,31.531 -18.438,9.368 -39.43,10.794 -59.026,16.518 -5.55,1.74 -11.571,0.95347 -17.281,1.0495 v 6.7538 l -9.433,-5.5e-4 0.01,12.129 h -33.798 v -12.129 l -9.3407,-5e-5 v -6.7535 c -5.724,-0.095 -11.681,0.67848 -17.239,-1.0495 -17.063,-5.006 -35.055,-6.643 -51.659,-13.229 -13.754,-5.726 -26.528,-13.525 -39.026,-21.558 -11.082,-7.561 -22.15,-15.605 -30.521,-26.228 -5.061,-6.548 -9.827,-13.336 -14.091,-20.423 10.988,6.303 21.191,13.934 32.422,19.828 -8.951,-14.546 -19.008,-28.535 -30.614,-41.089 -14.716,-15.064 -29.619,-30.427 -47.959,-41.102 -6.561,-4.09 -13.594,-7.366 -20.207,-11.378 10.57,-1.197 21.272,1.287 30.681,6.102 17.927,9.166 34.731,20.342 50.658,32.611 -1.433,-16.187 -3.09,-32.719 -9.665,-47.766 -4.533,-10.263 -9.259,-20.454 -13.9,-30.668 -3.319,-7.399 -7.992,-14.173 -10.503,-21.923 11.5,9.695 21.594,21.098 29.884,33.669 4.279,6.33 8.165,12.944 12.672,19.141 0.135,-6.061 0.823,-12.188 -0.013,-18.223 -1.594,-3.736 -5.657,-6.601 -5.064,-11.077 0.68,-8.18 -2.039,-16.094 -2.238,-24.202 -0.259,-3.469 2.294,-6.089 4.105,-8.734 2.603,-3.038 1.592,-7.33 2.738,-10.907 2.556,-4.873 7.252,-8.103 10.207,-12.705 2.89,-4.28 6.855,-7.681 9.75,-11.946 3.509,-5.414 9.233,-8.761 13.066,-13.904 4.413,-5.683 11.594,-8.013 16.629,-13.026 5.075,-5.048 12.054,-7.492 17.464,-12.134 3.344,-2.935 7.551,-4.379 11.83,-5.364 m 16.932,-0.446 c 2.16,-0.985 4.302,-2.024 6.479,-3.01 -1.632,1.864 -3.32,3.687 -4.998,5.522 0.554,2.444 1.133,4.888 1.741,7.315 2.107,-1.631 4.811,-2.847 6.007,-5.385 2.525,-4.714 1.082,-10.166 0.567,-15.156 -4.749,1.914 -10.757,4.463 -9.796,10.714 m 110.09,-10.703 c -0.507,4.997 -1.952,10.449 0.573,15.145 1.197,2.538 3.882,3.754 6.02,5.386 0.581,-2.428 1.148,-4.859 1.715,-7.289 -1.67,-1.86 -3.348,-3.713 -4.94,-5.629 1.942,1.001 3.875,2.053 5.805,3.093 0.215,-1.809 0.445,-3.631 0.664,-5.441 -3.192,-1.919 -6.471,-3.674 -9.837,-5.265 m -125.64,12.243 c 0.282,2.685 0.552,5.358 0.82,8.043 0.985,-0.282 1.986,-0.567 2.997,-0.837 4.227,0.784 8.532,0.404 12.784,-0.094 -0.594,-4.521 -1.62,-8.961 -2.844,-13.349 -4.759,1.713 -9.343,3.807 -13.757,6.237 m 137.21,-6.237 c -1.271,4.359 -2.242,8.814 -2.798,13.337 5.266,0.768 10.582,0.567 15.873,0.324 0.213,-2.469 0.446,-4.957 0.678,-7.423 -4.418,-2.446 -9.003,-4.537 -13.753,-6.238 m -154.38,15.537 c 0.868,1.764 1.728,3.538 2.595,5.304 1.983,-2.011 3.98,-4.021 6.098,-5.898 -1.782,2.985 -3.788,5.818 -5.759,8.68 4.017,-0.016 8.058,-0.027 12.094,-0.016 1.473,-5.522 1.633,-11.27 0.77,-16.914 -6.29,0.786 -11.124,4.97 -15.798,8.844 m 37.988,1.025 c 2.308,-0.54 4.616,-1.095 6.953,-1.59 -4.225,2.321 -8.908,4.441 -10.462,9.463 2.417,-0.403 5.305,0.119 7.129,-1.943 5.236,-5.095 12.053,-8.735 15.492,-15.457 -4.074,0.023 -8.219,0.023 -12.216,0.959 -2.605,2.591 -4.522,5.774 -6.896,8.568 m 90.236,-9.516 c 3.468,6.708 10.271,10.353 15.522,15.442 1.798,2.063 4.686,1.534 7.118,1.93 -1.57,-4.999 -6.237,-7.128 -10.462,-9.451 2.325,0.498 4.63,1.055 6.938,1.592 -2.35,-2.797 -4.297,-5.966 -6.874,-8.574 -4.009,-0.924 -8.152,-0.924 -12.242,-0.939 m 41.315,-0.351 c -0.861,5.643 -0.7,11.394 0.774,16.929 4.018,-0.017 8.045,-0.028 12.082,-0.028 -1.99,-2.845 -3.995,-5.667 -5.766,-8.652 2.118,1.89 4.115,3.888 6.13,5.899 0.837,-1.779 1.704,-3.54 2.577,-5.304 -4.683,-3.876 -9.516,-8.06 -15.797,-8.844 m -151.21,11.35 c -1.566,1.998 -2.892,6.265 -0.027,7.734 1.956,-0.582 3.823,-1.392 5.737,-2.119 -2.835,2.403 -5.469,5.06 -7.345,8.3 4.359,-0.813 9.301,-1.042 12.581,-4.442 4.198,-3.025 5.568,-8.178 7.572,-12.663 -6.168,0.437 -13.191,-0.563 -18.518,3.19 m 34.057,-2.149 c -4.108,1.538 -7.1,4.902 -9.814,8.184 3.443,-0.365 6.871,-0.879 10.328,-1.152 -2.691,1.458 -5.479,2.727 -8.167,4.212 2.835,0.771 5.655,1.849 8.623,1.956 4.225,-2.593 7.589,-6.306 11.284,-9.546 -3.861,-1.721 -7.881,-4.06 -12.254,-3.654 m 68.352,3.658 c 3.689,3.24 7.062,6.952 11.284,9.543 2.954,-0.11 5.778,-1.188 8.616,-1.956 -2.672,-1.498 -5.479,-2.743 -8.153,-4.212 3.441,0.27 6.87,0.783 10.325,1.152 -2.172,-2.553 -4.373,-5.185 -7.274,-6.927 -4.7,-3.308 -10.314,0.58 -14.798,2.4 m 27.795,-4.696 c 1.998,4.483 3.371,9.652 7.572,12.663 3.281,3.4 8.204,3.631 12.581,4.441 -1.896,-3.24 -4.509,-5.911 -7.348,-8.315 2.365,0.378 5.493,3.698 7.222,0.772 0.378,-2.767 -0.244,-6.386 -3.213,-7.477 -5.274,-2.288 -11.2,-1.829 -16.814,-2.084 m -162.67,11.069 c 1.093,2.212 2.188,4.414 3.28,6.627 1.432,-2.416 2.846,-4.845 4.359,-7.221 -0.743,3.089 -1.58,6.171 -2.272,9.276 4.47,-2.405 8.994,-5.858 10.208,-11.068 -0.417,-2.561 -1.484,-4.954 -2.27,-7.397 -5.031,2.373 -10.065,5.113 -13.305,9.783 m 200.34,-9.785 c -0.677,3.076 -3.358,6.411 -1.525,9.527 1.764,4.168 5.656,6.801 9.462,8.938 -0.715,-3.104 -1.525,-6.171 -2.254,-9.259 1.498,2.362 2.902,4.792 4.348,7.207 1.08,-2.213 2.172,-4.415 3.276,-6.615 -3.234,-4.683 -8.268,-7.423 -13.307,-9.798 m -183.67,9.852 c -2.171,2.364 -3.752,5.185 -5.44,7.879 3.714,-1.104 7.357,-2.427 10.785,-4.263 -3.331,3.603 -4.063,8.37 -3.913,13.135 3.995,-3.359 8.45,-6.25 12.067,-10.043 0.499,-2.592 0.445,-5.25 0.607,-7.871 -4.712,0.055 -9.531,-0.078 -14.106,1.163 m 24.797,5.021 c 3.561,0.082 7.138,0.135 10.663,0.718 -3.118,0.513 -6.252,0.917 -9.355,1.482 1.633,1.783 3.28,3.564 4.944,5.334 5.813,-2.239 11.632,-4.491 17.305,-7.114 -4.508,-2.632 -8.992,-5.993 -14.429,-6.035 -4.08,-0.784 -6.402,3.375 -9.128,5.615 m 121.59,-5.615 c -5.452,0.042 -9.933,3.403 -14.428,6.036 5.669,2.609 11.485,4.872 17.303,7.114 1.648,-1.765 3.294,-3.548 4.942,-5.334 -3.118,-0.567 -6.252,-0.97 -9.354,-1.482 3.523,-0.582 7.086,-0.636 10.664,-0.717 -2.741,-2.242 -5.049,-6.401 -9.127,-5.617 m 19.817,-0.581 c 0.146,2.632 0.094,5.289 0.605,7.881 3.62,3.794 8.06,6.684 12.064,10.043 0.134,-4.767 -0.591,-9.53 -3.915,-13.134 3.416,1.836 7.061,3.16 10.786,4.263 -1.704,-2.7 -3.278,-5.521 -5.438,-7.881 -4.588,-1.238 -9.392,-1.105 -14.102,-1.172 m -199.61,13.513 c 0.674,3.038 1.311,6.087 1.998,9.124 2.469,-3.995 4.413,-8.287 6.803,-12.323 -0.675,3.309 -1.576,6.574 -2.391,9.855 2.703,-1.203 5.629,-2.011 8.086,-3.674 3.712,-4.159 3.561,-10.176 1.339,-15.013 -5.792,3.285 -11.474,6.913 -15.835,12.031 m 231.29,-12.029 c -2.24,4.833 -2.39,10.852 1.336,15.013 2.457,1.663 5.376,2.468 8.084,3.674 -0.822,-3.294 -1.722,-6.551 -2.387,-9.855 2.387,4.037 4.336,8.329 6.803,12.324 0.678,-3.036 1.308,-6.085 1.996,-9.124 -4.359,-5.121 -10.055,-8.749 -15.832,-12.032 m -189.11,11.989 c 3.424,-0.148 6.854,-0.474 10.3,-0.688 -4.55,1.338 -9.167,2.418 -13.651,3.942 3.5,1.526 7.032,2.931 10.527,4.441 4.455,-2.563 9.152,-4.696 13.917,-6.627 -2.039,-2.592 -3.925,-5.346 -6.317,-7.64 -5.785,-0.825 -10.482,3.345 -14.776,6.572 m 147.97,-6.561 c -2.389,2.279 -4.279,5.037 -6.304,7.638 4.771,1.917 9.448,4.05 13.917,6.614 3.499,-1.511 7.032,-2.916 10.517,-4.442 -4.482,-1.524 -9.1,-2.604 -13.635,-3.94 3.429,0.214 6.845,0.54 10.286,0.689 -4.276,-3.225 -9.004,-7.41 -14.781,-6.559 m -168.89,3.657 c -4.064,1.956 -5.305,6.641 -4.604,10.797 2.902,-2.186 5.794,-4.387 8.868,-6.33 -2.617,3.052 -5.667,5.683 -8.705,8.3 0.445,2.484 0.904,4.966 1.418,7.451 4.778,-3.729 9.07,-8.018 13.728,-11.894 2.808,-2.229 1.339,-6.234 1.604,-9.317 -4.111,0.237 -8.262,0.237 -12.309,0.993 m 192.3,-0.986 c 0.259,3.077 -1.214,7.072 1.61,9.317 4.656,3.873 8.947,8.164 13.728,11.891 0.494,-2.484 0.968,-4.966 1.416,-7.451 -3.036,-2.618 -6.101,-5.236 -8.704,-8.3 3.064,1.971 5.978,4.131 8.884,6.33 -0.06,-2.654 0.508,-5.668 -1.366,-7.879 -3.403,-5.135 -10.399,-3.056 -15.568,-3.908 m -227.31,20.884 c 0.868,-0.216 2.578,-0.622 3.428,-0.824 -1.335,3.673 -1.984,7.518 -1.552,11.447 4.684,-4.468 9.382,-9.371 11.584,-15.591 0.736,-3.224 -0.154,-6.558 -0.381,-9.813 -5.845,3.429 -10.42,8.544 -13.079,14.781 m 261.55,-14.76 c -0.269,3.929 -1.606,8.221 0.46,11.911 2.483,5.264 6.556,9.556 10.757,13.498 0.298,-3.889 -0.206,-7.735 -1.475,-11.406 0.797,0.175 2.388,0.528 3.186,0.716 -2.482,-6.297 -7.176,-11.29 -12.928,-14.719 m -219.78,8.491 c 3.375,-0.393 6.722,-0.945 10.127,-1.2 -4.849,2.078 -10.231,3.265 -14.038,7.167 5.547,-0.312 11.136,-0.621 16.67,-1.175 3.105,-1.539 4.964,-4.672 7.179,-7.222 -3.142,-1.217 -6.264,-2.592 -9.566,-3.266 -3.758,1.268 -6.987,3.684 -10.372,5.696 m 171.14,-2.445 c 2.215,2.552 4.065,5.696 7.182,7.236 5.534,0.554 11.109,0.864 16.686,1.175 -3.833,-3.888 -9.207,-5.089 -14.039,-7.167 3.374,0.258 6.723,0.822 10.111,1.2 -3.402,-2.012 -6.629,-4.455 -10.376,-5.696 -3.313,0.676 -6.43,2.048 -9.564,3.252 m -196.38,1.824 c -2.701,3.766 -4.388,8.14 -6.44,12.27 4.049,-0.702 7.735,-2.523 11.027,-4.941 -2.146,3.507 -2.838,7.558 -2.997,11.61 4.429,-3.713 8.222,-8.154 11.313,-13.027 0.74,-3.414 -0.282,-6.967 -0.378,-10.418 -4.305,1.05 -8.787,2.035 -12.525,4.506 m 229.04,-4.509 c -0.109,3.455 -1.146,7.018 -0.363,10.418 3.078,4.871 6.871,9.316 11.302,13.027 -0.175,-4.065 -0.85,-8.102 -2.999,-11.61 3.282,2.417 6.967,4.239 11.029,4.942 -2.063,-4.13 -3.751,-8.504 -6.424,-12.271 -3.759,-2.468 -8.256,-3.453 -12.545,-4.506 m -255.97,26.038 c 1.647,-1.107 3.268,-2.253 4.912,-3.388 -3.94,4.709 -3.75,10.664 -2.703,16.386 3.24,-4.901 6.32,-9.962 8.766,-15.305 0.736,-4.347 -0.796,-8.748 -1.393,-13.028 -4.615,4.078 -7.908,9.409 -9.582,15.335 m 41.48,-13.378 c -3.751,2.376 -6.006,6.386 -9.164,9.395 -2.107,1.945 -3.673,4.347 -4.94,6.897 5.17,-1.444 9.231,-4.927 13.417,-8.072 -1.513,2.176 -3.093,4.294 -4.628,6.438 3.807,-0.054 8.247,0.596 11.393,-2.089 5.009,-3.981 9.826,-8.289 13.58,-13.511 -6.536,0.836 -13.111,0.673 -19.658,0.942 m 192.81,-0.943 c 3.753,5.224 8.57,9.529 13.579,13.511 3.146,2.687 7.574,2.04 11.394,2.089 -1.554,-2.145 -3.131,-4.262 -4.628,-6.438 4.185,3.146 8.246,6.628 13.416,8.072 -2.036,-4.75 -6.263,-7.869 -9.354,-11.865 -1.861,-1.891 -3.617,-4.871 -6.64,-4.603 -5.946,0.218 -11.87,-0.215 -17.767,-0.766 m 51.549,-1.014 c -0.595,4.281 -2.147,8.677 -1.392,13.028 2.443,5.344 5.509,10.406 8.765,15.305 1.04,-5.722 1.242,-11.666 -2.688,-16.375 1.621,1.119 3.237,2.254 4.902,3.359 -1.689,-5.922 -4.984,-11.239 -9.587,-15.317 m -268.16,8.586 c -4.347,2.703 -6.643,7.495 -9.094,11.773 3.848,-1.189 7.559,-2.754 11.296,-4.28 -1.875,1.763 -3.807,3.466 -5.735,5.153 0.42,3.499 0.715,6.991 1.065,10.489 2.687,-2.082 5.615,-3.954 7.919,-6.479 3.322,-5.415 3.943,-11.919 4.754,-18.075 -3.411,0.179 -7.101,-0.27 -10.205,1.419 m 249.86,-1.419 c 0.646,5.224 1.255,10.545 3.35,15.431 1.552,4.304 6.037,6.345 9.327,9.14 0.34,-3.509 0.649,-7.004 1.066,-10.501 -1.948,-1.689 -3.878,-3.391 -5.737,-5.153 3.728,1.525 7.44,3.089 11.309,4.279 -2.468,-4.279 -4.765,-9.07 -9.111,-11.773 -3.115,-1.693 -6.8,-1.244 -10.204,-1.423 m -268.86,5.428 c -1.996,2.687 -4.159,5.288 -5.774,8.247 -1.188,3.321 0.022,6.896 0.863,10.164 1.15,-2.362 2.2,-4.763 3.334,-7.122 -0.376,4.602 -0.567,9.283 1.119,13.674 3.833,-7.89 2.337,-16.783 0.458,-24.963 m 298.53,24.959 c 1.648,-4.456 1.494,-9.184 1.157,-13.841 1.059,2.422 2.081,4.862 3.173,7.264 1.01,-3.228 2.187,-6.763 0.998,-10.113 -1.632,-2.972 -3.792,-5.573 -5.79,-8.274 -1.872,8.185 -3.383,17.078 0.462,24.964 m -267.74,-18.32 c -3.593,1.783 -4.17,6.089 -5.628,9.411 2.279,-0.308 4.509,-0.875 6.777,-1.268 1.622,0.982 3.428,1.631 5.022,2.67 1.575,-3.939 3.227,-7.867 4.858,-11.797 -3.673,-0.137 -7.71,-1.054 -11.029,0.984 m 225.42,-0.985 c 1.604,3.93 3.251,7.857 4.816,11.797 1.674,-0.904 3.336,-1.808 5.02,-2.711 2.255,0.446 4.51,0.906 6.791,1.362 -1.432,-3.347 -2.024,-7.681 -5.615,-9.464 -3.334,-2.023 -7.371,-1.132 -11.012,-0.984 m -254.66,17.953 c 2.614,-1.094 5.223,-2.293 7.743,-3.616 0.136,4.346 0.933,8.653 2.093,12.853 1.216,-2.042 3.28,-3.847 3.28,-6.385 0.378,-6.156 0.188,-12.364 -1.08,-18.398 -6.666,2.466 -10.296,9.039 -12.036,15.546 m 282.88,-15.53 c -0.891,8.103 -3.685,17.972 2.188,24.797 1.16,-4.197 1.97,-8.504 2.124,-12.862 2.509,1.323 5.088,2.522 7.729,3.616 -1.755,-6.52 -5.373,-13.08 -12.041,-15.551 m -268.51,12.541 c 0.068,2.066 0.133,4.147 0.216,6.209 3.033,-1.537 6.085,-3.104 9.242,-4.387 -2.654,2.268 -5.562,4.225 -8.393,6.251 2.97,0.999 5.845,2.538 9.029,2.687 4.441,-3.335 7.316,-8.206 10.677,-12.525 -3.874,-0.756 -7.774,-1.647 -11.727,-1.608 -3.2,0.563 -6.049,2.226 -9.044,3.373 m 245.41,-1.77 c 3.358,4.32 6.23,9.19 10.676,12.526 3.187,-0.136 6.042,-1.702 9.031,-2.687 -2.849,-2.024 -5.738,-3.982 -8.396,-6.237 3.159,1.27 6.194,2.837 9.245,4.375 0.069,-2.066 0.136,-4.129 0.217,-6.211 -3.011,-1.146 -5.858,-2.806 -9.047,-3.375 -3.965,-0.037 -7.867,0.854 -11.726,1.609 m -273.49,7.683 c 0.255,6.047 1.417,12.054 3.087,17.872 0.458,-3.914 0.515,-7.841 0.855,-11.757 1.078,4.455 1.763,8.992 2.982,13.418 0.782,-7.141 -1.324,-15.339 4.212,-21.061 -1.854,-2.726 -3.794,-5.383 -5.831,-7.975 -2.27,2.82 -5.323,5.601 -5.305,9.503 m 311.21,-1.512 c 5.494,5.696 3.354,13.836 4.339,20.922 1.094,-4.399 1.755,-8.896 2.803,-13.296 0.354,3.901 0.421,7.844 0.908,11.744 1.661,-5.803 2.822,-11.813 3.088,-17.845 0,-3.941 -3.088,-6.723 -5.38,-9.544 -2.014,2.605 -3.931,5.278 -5.758,8.019 m -302.26,5.967 c -0.905,5.237 -0.42,10.664 0.688,15.845 2.308,-4.562 3.052,-9.652 4.858,-14.404 -0.229,4.375 -0.89,8.71 -1.444,13.052 2.673,-0.054 5.358,-0.117 8.05,-0.213 2.023,-7.48 0.754,-15.226 -1.571,-22.477 -3.79,2.284 -8.505,3.973 -10.581,8.197 m 293.86,-8.196 c -2.321,7.25 -3.6,14.996 -1.565,22.488 2.672,0.081 5.358,0.146 8.061,0.202 -0.587,-4.346 -1.247,-8.677 -1.462,-13.066 1.809,4.751 2.537,9.854 4.862,14.43 1.104,-5.194 1.578,-10.623 0.674,-15.873 -2.077,-4.209 -6.786,-5.898 -10.57,-8.181 m -278.95,10.87 c -0.647,4.616 -0.904,9.273 -1.444,13.9 2.227,-3.051 4.21,-6.29 6.48,-9.313 -1.176,2.997 -2.523,5.926 -3.833,8.883 1.078,0.446 3.225,1.338 4.295,1.795 3.266,-5.17 6.586,-10.313 9.282,-15.807 -4.804,-1.265 -10.951,-4.412 -14.78,0.542 m 259.8,-0.541 c 2.701,5.495 6.02,10.637 9.286,15.807 1.065,-0.445 3.212,-1.349 4.279,-1.809 -1.31,-2.956 -2.646,-5.898 -3.82,-8.909 2.269,3.038 4.238,6.292 6.479,9.354 -0.54,-4.628 -0.796,-9.285 -1.444,-13.9 -3.833,-4.956 -9.971,-1.809 -14.78,-0.543 m -307.12,10.73 c 5.984,13.313 14.267,25.449 20.612,38.594 6.303,11.666 9.258,24.672 13.792,37.04 1.057,-6.588 2.65,-13.161 3.015,-19.828 -4.285,-9.664 -10.343,-18.465 -15.876,-27.468 -6.639,-9.819 -12.442,-20.534 -21.543,-28.338 m 348.7,26.687 c -5.926,9.528 -12.349,18.869 -16.941,29.128 0.364,6.65 1.947,13.215 3.012,19.803 4.535,-12.351 7.495,-25.359 13.782,-37.024 6.345,-13.145 14.644,-25.297 20.622,-38.606 -8.636,7.341 -14.21,17.426 -20.475,26.699 m -322.5,-23.79 c 0.075,1.819 0.202,3.642 0.358,5.467 0.019,3.616 3.512,5.683 5.116,8.61 1.312,7.821 -1.052,15.754 0.072,23.583 1.551,4.644 4.655,8.544 7.342,12.569 3.954,-11.325 0.661,-23.327 1.078,-34.976 4.86,-2.971 8.529,-7.369 11.254,-12.324 -8.105,-2.929 -16.775,-2.415 -25.22,-2.929 m 291.57,2.915 c 2.727,4.966 6.399,9.369 11.258,12.335 0.42,11.649 -2.874,23.649 1.081,34.977 2.686,-4.022 5.791,-7.923 7.342,-12.569 1.122,-7.826 -1.253,-15.767 0.069,-23.583 1.401,-2.254 3.414,-4.09 4.755,-6.398 0.551,-2.521 0.525,-5.116 0.73,-7.68 -8.468,0.516 -17.12,0.003 -25.235,2.918 m -263.87,20.43 c -8.194,14.334 -16.038,29.708 -16.915,46.509 -0.566,8.45 -1.669,17.062 -0.473,25.489 2.024,2.426 4.535,4.387 6.953,6.437 -0.378,-24.39 2.172,-49.271 11.839,-71.876 3.631,-8.367 8.745,-15.967 12.459,-24.296 -6.074,4.632 -9.99,11.297 -13.863,17.737 m -8.139,80.192 c 3.051,4.007 7.113,7.087 10.879,10.408 0.211,-11.57 -3.51,-22.73 -3.5,-34.284 -0.875,-16.806 3.077,-33.368 8.044,-49.281 2.443,-7.922 6.29,-15.306 8.993,-23.139 -19.921,27.536 -26.388,62.888 -24.416,96.296 m 253.23,-96.311 c 2.311,6.832 5.645,13.255 7.951,20.085 6.613,19.438 10.985,40.077 8.545,60.674 -0.963,8.652 -3.159,17.185 -2.943,25.959 3.754,-3.317 7.83,-6.4 10.88,-10.409 0.678,-11.189 0.257,-22.489 -0.907,-33.64 -3.265,-22.187 -9.986,-44.499 -23.526,-62.669 m 3.17,-0.729 c 4.065,10.034 10.599,18.897 14.028,29.226 7.785,20.948 9.756,43.448 9.599,65.654 2.442,-1.902 4.845,-3.832 7.274,-5.765 0.188,-11.783 -0.175,-23.617 -2.042,-35.267 -2.633,-12.229 -8.203,-23.596 -14.254,-34.462 -4.182,-6.926 -8.02,-14.403 -14.605,-19.386 m -298.96,3.158 c 4.627,11.949 11.212,23.164 14.618,35.598 3.48,12.336 3.307,25.306 5.383,37.89 3.023,4.037 7.33,6.843 11.082,10.166 0.174,-5.804 0.796,-11.773 -1.066,-17.371 -2.7,-8.866 -5.09,-17.872 -8.652,-26.456 -4.86,-11.395 -10.475,-22.46 -16.564,-33.258 -1.358,-2.358 -3.019,-4.527 -4.801,-6.569 m 357.97,6.562 c -9.504,17.008 -18.357,34.584 -23.365,53.503 -2.903,7.535 -3.754,15.565 -2.903,23.567 4.415,-4.439 12.136,-7.535 11.798,-14.822 1.298,-11.821 1.742,-23.879 5.264,-35.322 3.539,-11.622 9.64,-22.219 14.015,-33.487 -1.797,2.041 -3.446,4.199 -4.81,6.561 m -411.04,28.237 c 13.323,7.451 28.468,11.662 40.534,21.341 21.301,16.226 40.656,35.312 55.708,57.529 4.429,6.333 8.368,13.043 13.432,18.926 -0.62,-7.315 -1.809,-14.564 -2.484,-21.869 0.014,-3.918 -3.357,-6.306 -5.858,-8.772 -9.463,-8.519 -18.722,-17.291 -28.36,-25.621 -15.617,-13.793 -33.39,-24.943 -51.752,-34.69 -6.574,-3.564 -13.673,-6.424 -21.22,-6.844 m 450.38,5.468 c -11.704,5.966 -23.002,12.687 -33.854,20.072 -17.549,11.824 -32.503,26.917 -48.242,40.954 -2.687,2.714 -6.557,5.171 -6.557,9.434 -0.689,7.732 -1.891,15.391 -3.026,23.066 9.476,-12.711 17.457,-26.55 27.913,-38.538 13.811,-15.846 29.242,-30.396 46.494,-42.463 11.066,-7.651 24.202,-11.351 35.792,-17.991 -6.505,0.404 -12.764,2.485 -18.52,5.466 m -342.31,39.062 c -1.215,10.365 0.229,20.759 0.823,31.114 0.606,9.773 3.216,19.248 4.978,28.846 3.471,1.039 6.939,2.051 10.453,2.984 -3.918,-22.542 -9.962,-45.152 -8.368,-68.221 1.062,-9.069 1.817,-18.355 5.111,-26.951 0.027,10.014 -3.464,19.678 -3.265,29.723 0.024,22.3 3.778,44.434 8.773,66.1 4.534,1.148 9.084,2.215 13.675,3.119 -14.189,-22.487 -20.265,-49.527 -19.386,-75.955 0.188,-8.764 2.065,-17.562 0.312,-26.28 -6.046,11.077 -12.16,22.698 -13.106,35.521 m -90.088,-33.811 c 14.862,10.834 27.849,23.933 40.414,37.292 10.124,10.691 18.832,22.625 27.33,34.598 3.052,4.183 5.534,8.828 9.206,12.515 4.13,3.36 9.288,5.101 14.174,7.046 -5.602,-9.788 -12.039,-19.073 -18.547,-28.267 -9.178,-13.089 -20.788,-24.202 -32.354,-35.134 -12.054,-11.07 -24.591,-22.383 -40.223,-28.05 m 383.08,37.269 c -16.659,15.644 -29.63,34.648 -41.265,54.182 6.23,-2.538 13.442,-4.644 17.265,-10.678 10.529,-15.322 21.261,-30.643 34.098,-44.165 12.377,-13.124 25.162,-25.963 39.767,-36.608 -19.83,7.408 -34.805,23.041 -49.865,37.269 m -53.131,-1.744 c -0.742,22.799 -7.088,45.622 -19.276,64.98 4.59,-0.891 9.142,-1.953 13.675,-3.105 4.575,-19.507 7.855,-39.389 8.721,-59.43 0.661,-12.558 -1.917,-24.946 -4.212,-37.216 -0.229,11.609 2.052,23.149 1.092,34.771 m 0.933,-34.674 c 1.73,12.808 4.968,25.525 4.374,38.551 -0.702,19.372 -5.237,38.336 -8.639,57.354 3.481,-0.932 6.968,-1.947 10.434,-2.984 1.608,-8.773 3.942,-17.44 4.779,-26.348 0.999,-14.753 3.146,-29.886 -0.918,-44.386 -2.389,-7.772 -5.783,-15.252 -10.03,-22.187 m -214.8,61.24 c 5.979,16.646 14.511,32.637 26.604,45.68 9.963,9.744 21.909,17.115 33.342,25 0,-3.258 -0.018,-6.496 0,-9.719 -8.196,-5.17 -17.103,-9.518 -23.919,-16.566 -12.957,-13.039 -20.455,-30.113 -28.592,-46.298 -2.496,0.609 -4.965,1.228 -7.435,1.903 m 10.422,-1.481 c 2.064,4.966 3.82,10.148 6.799,14.657 2.501,2.432 6.227,2.958 9.318,4.36 10.07,3.522 18.396,10.418 28.033,14.821 -11.498,-14.702 -26.414,-27.454 -44.15,-33.838 m 135.88,33.85 c 9.625,-4.388 17.97,-11.298 28.026,-14.821 3.092,-1.404 6.801,-1.931 9.312,-4.347 2.996,-4.521 4.751,-9.703 6.818,-14.67 -17.736,6.385 -32.663,19.137 -44.156,33.838 m 47.136,-34.258 c -8.139,16.187 -15.626,33.26 -28.575,46.286 -6.83,7.062 -15.722,11.407 -23.935,16.578 -0.012,3.222 0,6.46 0,9.719 7.547,-5.095 15.106,-10.139 22.381,-15.622 18.522,-13.258 29.845,-34.11 37.57,-55.058 -2.483,-0.662 -4.956,-1.306 -7.441,-1.903 m -199.89,6.374 c 2.212,9.137 5.885,17.936 10.19,26.291 8.842,14.984 21.922,27.104 36.349,36.648 6.451,4.253 12.716,8.924 19.869,11.987 -0.326,-2.769 1.081,-6.818 -2.201,-8.225 -10.15,-6.814 -20.517,-13.426 -29.643,-21.592 -14.17,-13.367 -23.097,-31.18 -30.192,-49.052 -1.485,1.281 -2.997,2.539 -4.372,3.943 m 189.41,33.728 c -10.286,14.189 -25.588,23.297 -39.829,32.975 -3.293,1.42 -1.897,5.453 -2.178,8.223 7.425,-3.214 13.934,-8.1 20.653,-12.522 14.106,-9.436 26.858,-21.423 35.553,-36.111 4.281,-8.353 7.977,-17.156 10.168,-26.291 -1.352,-1.445 -2.892,-2.661 -4.374,-3.931 -5.156,13.282 -11.532,26.143 -19.993,37.657 m -249.74,-26.62 c 7.614,12.987 19.951,22.233 32.165,30.602 14.933,10.002 30.322,19.885 47.572,25.391 10.797,3.281 21.878,5.708 33.099,7.049 -6.64,-4.494 -12.903,-9.529 -19.466,-14.123 -9.287,-4.266 -19.33,-6.651 -28.792,-10.501 -15.532,-6.266 -30.947,-13.106 -44.922,-22.421 -7.075,-4.685 -12.812,-11.03 -19.656,-15.997 m 314.78,15.98 c -13.957,9.33 -29.385,16.171 -44.904,22.437 -9.476,3.846 -19.521,6.232 -28.806,10.501 -6.574,4.604 -12.838,9.639 -19.491,14.133 10.137,-1.201 20.153,-3.351 29.979,-6.116 15.675,-4.399 29.847,-12.713 43.427,-21.491 14.728,-9.754 30.249,-19.908 39.456,-35.448 -6.86,4.971 -12.583,11.316 -19.661,15.984 m -309.5,-14.967 c 8.802,9.92 20.112,17.315 31.965,23.095 16.588,8.152 33.731,15.254 51.44,20.584 -4.791,-5.236 -9.138,-11.136 -14.914,-15.305 -11.029,-3.43 -22.627,-5.208 -33.222,-10.002 -12.401,-4.851 -23.389,-12.503 -35.269,-18.372 m 304.98,10.434 c -12.137,6.79 -25.164,11.97 -38.739,14.998 -4.713,1.47 -10.383,1.415 -13.935,5.317 -4.104,4.158 -8.065,8.463 -11.835,12.945 12.177,-3.633 24.049,-8.219 35.69,-13.277 17.291,-7.589 35.042,-15.969 47.718,-30.414 -6.616,2.894 -12.514,7.121 -18.899,10.431 m -224.47,-6.21 c 2.522,5.051 5.588,9.813 8.64,14.58 7.728,-0.498 15.455,0.017 23.004,1.859 -9.49,-7.245 -20.276,-12.834 -31.644,-16.439 m 131.25,16.429 c 7.536,-1.836 15.267,-2.349 22.986,-1.852 3.051,-4.767 6.102,-9.527 8.64,-14.58 -11.367,3.608 -22.147,9.197 -31.626,16.432 m -63.885,8.276 0,9.9644 28.17,0 0,-9.9644 m -38.406,11.972 0,4.7656 7.3712,0 0,-4.7656 m 2.8654,0 -9e-5,10.165 28.17,0 0,-10.165 m 2.7632,0 0,4.7656 7.4363,0 -5.1e-4,-4.7656 m -62.746,6.1262 0,20.222 12.172,5.3e-4 0,-20.222 m 1.9695,-2.8e-4 0,4.0388 7.3712,0 0,-4.0388 m 33.798,0 0,4.0388 7.4358,-5.3e-4 0,-4.0383 m 1.9876,2.8e-4 0,20.222 12.19,0 0,-20.222 m -62.783,6.1418 0,7.9382 7.3712,0 0,-7.9382 m 2.8653,0 0,7.9382 28.169,0 4.5e-4,-7.9382 m 2.7632,0 0,7.9382 7.4363,0 0,-7.9382 m -48.606,10.041 0,4.0382 7.3712,0 0,-4.0382 m 2.8653,0 0,10.041 28.17,0 0,-10.041 m 2.7632,0 0,4.0382 7.4358,0 0,-4.0382 m -48.605,5.3972 0,4.6443 7.3712,2.3e-4 0,-4.644 m 33.798,0 0,4.644 7.4363,-2.3e-4 0,-4.6438 m -38.369,6.7528 0,10.042 28.17,0 0,-10.042 z" />
	</g>
</svg>